<svg width="161" height="40" viewBox="0 0 161 40" fill="none" xmlns="http://www.w3.org/2000/svg">
<g clip-path="url(#clip0_66_575)">
<path d="M10.8906 30.1035C8.7934 30.1035 6.9261 29.658 5.28865 28.7689C3.6512 27.8778 2.35955 26.669 1.41573 25.1405C0.47191 23.612 0 21.8649 0 19.897C0 17.9291 0.47191 16.184 1.41573 14.6534C2.35955 13.1249 3.64917 11.91 5.28865 11.0065C6.9261 10.103 8.7934 9.65123 10.8906 9.65123H13.9173V14.8741H11.1265C10.1034 14.8741 9.22666 15.0928 8.49235 15.5322C7.75804 15.9715 7.1885 16.5697 6.78168 17.3268C6.37486 18.0838 6.17145 18.9419 6.17145 19.899C6.17145 20.8562 6.37486 21.7205 6.78168 22.4899C7.1885 23.2613 7.75804 23.8595 8.49235 24.2845C9.22666 24.7094 10.1034 24.9219 11.1265 24.9219H13.9173V30.1056H10.8906V30.1035Z" fill="white"/>
<path d="M24.9258 30.5821C22.8551 30.5821 20.9939 30.1159 19.3422 29.1877C17.6905 28.2574 16.3806 26.9826 15.4103 25.3612C14.44 23.7399 13.9559 21.9061 13.9559 19.8598C13.9559 17.8136 14.44 16.0272 15.4103 14.4183C16.3806 12.8114 17.6966 11.5407 19.3605 10.6104C21.0244 9.68011 22.8795 9.21599 24.9238 9.21599C26.968 9.21599 28.8476 9.68217 30.487 10.6104C32.1245 11.5407 33.4222 12.8093 34.3783 14.4183C35.3343 16.0272 35.8123 17.8548 35.8123 19.9011C35.8123 21.9474 35.3343 23.742 34.3783 25.3633C33.4202 26.9846 32.1245 28.2615 30.487 29.1897C28.8496 30.12 26.9945 30.5842 24.9238 30.5842L24.9258 30.5821ZM24.8872 25.2003C25.8574 25.2003 26.7016 24.9611 27.4237 24.4825C28.1438 24.0039 28.7011 23.3665 29.0937 22.5683C29.4863 21.77 29.6836 20.8665 29.6836 19.8578C29.6836 18.8491 29.4863 17.9848 29.0937 17.1865C28.7011 16.3882 28.1438 15.7508 27.4237 15.2723C26.7016 14.7937 25.8574 14.5544 24.8872 14.5544C23.9169 14.5544 23.1114 14.7937 22.3913 15.2723C21.6692 15.7508 21.1139 16.3882 20.7213 17.1865C20.3288 17.9848 20.1314 18.8738 20.1314 19.8578C20.1314 20.8417 20.3288 21.772 20.7213 22.5683C21.1139 23.3645 21.6713 24.0039 22.3913 24.4825C23.1114 24.9611 23.9433 25.2003 24.8872 25.2003Z" fill="white"/>
<path d="M46.9408 30.5821C45.2627 30.5821 43.7493 30.316 42.4007 29.7838C41.0501 29.2516 39.9171 28.4884 38.9997 27.4921C38.0824 26.4958 37.3745 25.3262 36.8761 23.9833C36.3778 22.6405 36.1296 21.147 36.1296 19.4989C36.1296 17.4526 36.5425 15.6662 37.3684 14.1357C38.1942 12.6072 39.3272 11.3984 40.7694 10.5073C42.2095 9.61616 43.8877 9.17267 45.8018 9.17267C46.6134 9.17267 47.3802 9.27993 48.1023 9.4924C48.8224 9.70486 49.4774 10.0184 50.0673 10.4289C50.6571 10.8414 51.1474 11.3262 51.542 11.8831H51.66V1H57.7541V19.4989C57.7541 21.7576 57.3086 23.7193 56.4177 25.3798C55.5268 27.0403 54.2758 28.3234 52.6628 29.2269C51.0497 30.1303 49.1438 30.5821 46.9429 30.5821H46.9408ZM46.9408 25.2787C47.8847 25.2787 48.6963 25.0394 49.3777 24.5609C50.0591 24.0823 50.59 23.4387 50.9704 22.6281C51.3508 21.8174 51.5399 20.9077 51.5399 19.897C51.5399 18.8862 51.3569 17.991 50.9887 17.2051C50.6205 16.4212 50.0896 15.79 49.396 15.3115C48.7003 14.8329 47.8826 14.5936 46.9388 14.5936C45.995 14.5936 45.2098 14.8329 44.502 15.3115C43.7941 15.79 43.2571 16.4212 42.891 17.2051C42.5228 17.9889 42.3397 18.8862 42.3397 19.897C42.3397 20.9077 42.5228 21.8174 42.891 22.6281C43.2571 23.4387 43.7961 24.0823 44.502 24.5609C45.2078 25.0394 46.0214 25.2787 46.9388 25.2787H46.9408Z" fill="white"/>
<path d="M69.9729 30.1035C67.9022 30.1035 66.0552 29.6518 64.43 28.7483C62.8048 27.8448 61.5212 26.6298 60.5774 25.0993C59.6336 23.5708 59.1617 21.8504 59.1617 19.9362C59.1617 18.0219 59.6336 16.3016 60.5774 14.7731C61.5212 13.2446 62.8048 12.0296 64.43 11.1261C66.0552 10.2226 67.9022 9.77087 69.9729 9.77087H72.3325V12.9207H69.8549C68.5185 12.9207 67.3184 13.2343 66.2566 13.8572C65.1948 14.4822 64.3568 15.3259 63.7404 16.3882C63.1241 17.4505 62.817 18.6346 62.817 19.9362C62.817 21.2378 63.1241 22.4218 63.7404 23.4841C64.3568 24.5464 65.1948 25.3922 66.2566 26.0151C67.3184 26.6402 68.5165 26.9516 69.8549 26.9516H72.3325V30.1015H69.9729V30.1035Z" fill="white"/>
<path d="M83.4956 30.5821C81.6873 30.5821 80.0681 30.2025 78.6402 29.4455C77.2123 28.6885 76.0976 27.6323 75.2982 26.275C74.4988 24.9198 74.1001 23.3377 74.1001 21.5307V9.76881H77.7554V21.4894C77.7554 22.7126 78.0178 23.7688 78.5426 24.6599C79.0674 25.551 79.7671 26.2338 80.6458 26.7123C81.5245 27.1909 82.4602 27.4302 83.4569 27.4302C84.4536 27.4302 85.428 27.1909 86.3067 26.7123C87.1854 26.2338 87.8913 25.5489 88.4303 24.6599C88.9673 23.7688 89.2358 22.7126 89.2358 21.4894V9.76881H92.8931V21.5307C92.8931 23.3377 92.4863 24.9198 91.6747 26.275C90.8611 27.6303 89.7484 28.6864 88.3327 29.4455C86.9169 30.2025 85.3059 30.5821 83.4976 30.5821H83.4956Z" fill="white"/>
<path d="M106.416 9.29231C107.935 9.29231 109.325 9.53778 110.584 10.0308C111.841 10.5238 112.929 11.2457 113.846 12.2029C114.764 13.16 115.478 14.3089 115.988 15.6518C116.499 16.9947 116.755 18.5025 116.755 20.1775C116.755 22.2774 116.328 24.1112 115.478 25.6789C114.625 27.2466 113.466 28.4574 111.999 29.3073C110.531 30.1572 108.867 30.5842 107.006 30.5842C105.983 30.5842 105.006 30.4109 104.077 30.0664C103.145 29.7219 102.321 29.2351 101.599 28.6121C100.877 27.9871 100.295 27.2775 99.8497 26.4792H99.7704V38.8785H96.1538V20.0599C96.1538 17.7744 96.6054 15.8333 97.5105 14.2388C98.4157 12.6443 99.6402 11.4211 101.186 10.5712C102.732 9.72136 104.475 9.29437 106.416 9.29437V9.29231ZM106.416 12.4421C105.21 12.4421 104.103 12.7474 103.094 13.3601C102.085 13.9727 101.286 14.835 100.696 15.9509C100.106 17.0669 99.8111 18.3829 99.8111 19.897C99.8111 21.411 100.106 22.7745 100.696 23.9029C101.286 25.0333 102.085 25.9037 103.094 26.5143C104.103 27.127 105.224 27.4322 106.454 27.4322C107.685 27.4322 108.838 27.1125 109.835 26.4751C110.832 25.8377 111.623 24.9611 112.213 23.843C112.803 22.725 113.098 21.4255 113.098 19.9362C113.098 18.4469 112.797 17.0648 112.193 15.9488C111.589 14.8329 110.783 13.9686 109.774 13.358C108.765 12.7474 107.644 12.4401 106.414 12.4401L106.416 12.4421Z" fill="white"/>
<path d="M128.472 30.5821C126.427 30.5821 124.619 30.1097 123.047 29.167C121.474 28.2244 120.229 26.9475 119.312 25.3406C118.395 23.7337 117.935 21.9309 117.935 19.9382C117.935 17.9456 118.393 16.1448 119.312 14.5359C120.229 12.929 121.474 11.6521 123.047 10.7094C124.619 9.76675 126.427 9.29437 128.472 9.29437C130.516 9.29437 132.33 9.76675 133.917 10.7094C135.501 11.6542 136.748 12.929 137.651 14.5359C138.557 16.1448 139.008 17.9456 139.008 19.9382C139.008 21.9309 138.557 23.7317 137.651 25.3406C136.746 26.9496 135.501 28.2244 133.917 29.167C132.33 30.1097 130.516 30.5821 128.472 30.5821ZM128.51 27.4323C129.873 27.4323 131.065 27.1001 132.088 26.4359C133.111 25.7717 133.909 24.8744 134.486 23.744C135.062 22.6157 135.351 21.345 135.351 19.9362C135.351 18.5273 135.062 17.2587 134.486 16.1283C133.909 15 133.111 14.1027 132.088 13.4364C131.067 12.7722 129.873 12.4401 128.51 12.4401C127.147 12.4401 125.909 12.7722 124.873 13.4364C123.838 14.1006 123.032 14.9979 122.455 16.1283C121.877 17.2587 121.59 18.5273 121.59 19.9362C121.59 21.345 121.879 22.6136 122.455 23.744C123.03 24.8744 123.836 25.7717 124.873 26.4359C125.909 27.1001 127.121 27.4323 128.51 27.4323Z" fill="white"/>
<path d="M141.286 30.1035V18.3417C141.286 16.5347 141.685 14.9525 142.486 13.5973C143.286 12.2421 144.392 11.1859 145.808 10.4268C147.224 9.66979 148.835 9.29025 150.643 9.29025C152.451 9.29025 154.097 9.66979 155.499 10.4268C156.9 11.1839 158 12.24 158.802 13.5973C159.601 14.9525 160 16.5347 160 18.3417V30.1035H156.383V18.3829C156.383 17.1617 156.115 16.1036 155.578 15.2124C155.041 14.3213 154.333 13.6386 153.454 13.16C152.576 12.6814 151.64 12.4421 150.643 12.4421C149.646 12.4421 148.711 12.6814 147.832 13.16C146.953 13.6386 146.245 14.3234 145.708 15.2124C145.171 16.1036 144.903 17.1597 144.903 18.3829V30.1035H141.286Z" fill="white"/>
</g>
<defs>
<clipPath id="clip0_66_575">
<rect width="160" height="37.8744" fill="white" transform="translate(0 1)"/>
</clipPath>
</defs>
</svg>
