<?xml version="1.0" encoding="utf-8"?>
<!-- Generator: Adobe Illustrator 27.3.1, SVG Export Plug-In . SVG Version: 6.00 Build 0)  -->
<svg version="1.1" id="Layer_1" xmlns="http://www.w3.org/2000/svg" xmlns:xlink="http://www.w3.org/1999/xlink" x="0px" y="0px"
	 viewBox="0 0 1053.1 143.4" style="enable-background:new 0 0 1053.1 143.4;" xml:space="preserve">
<style type="text/css">
	.st0{fill:#FFFFFF;}
</style>
<g>
	<g>
		<path class="st0" d="M53.5,141.1c-10.3,0-19.5-2.2-27.5-6.5c-8.1-4.3-14.4-10.2-19-17.6s-7-15.9-7-25.4s2.3-18,7-25.4
			c4.6-7.4,11-13.3,19-17.7c8.1-4.4,17.2-6.6,27.5-6.6h14.9v25.3H54.7c-5,0-9.3,1.1-13,3.2c-3.6,2.1-6.4,5-8.4,8.7
			c-2,3.7-3,7.8-3,12.5s1,8.8,3,12.6c2,3.7,4.8,6.6,8.4,8.7c3.6,2.1,7.9,3.1,13,3.1h13.7v25.1L53.5,141.1L53.5,141.1z"/>
		<path class="st0" d="M122.5,143.4c-10.2,0-19.3-2.3-27.4-6.8S80.5,125.9,75.8,118c-4.8-7.9-7.2-16.7-7.2-26.7
			c0-9.8,2.4-18.6,7.2-26.4C80.6,57.1,87,51,95.2,46.4c8.2-4.5,17.3-6.8,27.3-6.8c10.2,0,19.3,2.3,27.3,6.8
			c8.1,4.5,14.4,10.7,19.1,18.5c4.7,7.8,7.1,16.7,7.1,26.6c0,9.8-2.4,18.6-7.1,26.5c-4.7,7.9-11.1,14-19.1,18.6
			S132.7,143.4,122.5,143.4z M122.3,117.3c4.8,0,8.9-1.2,12.5-3.5c3.5-2.3,6.3-5.4,8.2-9.3s2.9-8.2,2.9-13.1c0-4.8-1-9.1-2.9-13
			s-4.7-7-8.2-9.3s-7.7-3.5-12.5-3.5c-4.6,0-8.7,1.2-12.3,3.5c-3.5,2.3-6.3,5.4-8.2,9.3c-1.9,3.9-2.9,8.2-2.9,13
			c0,4.9,1,9.3,2.9,13.1c1.9,3.9,4.7,7,8.2,9.3C113.6,116.2,117.7,117.3,122.3,117.3z"/>
		<path class="st0" d="M230.8,143.4c-8.2,0-15.7-1.3-22.3-3.9c-6.6-2.6-12.2-6.3-16.7-11.1s-8-10.5-10.4-17s-3.7-13.8-3.7-21.7
			c0-9.9,2-18.6,6.1-26s9.6-13.3,16.7-17.6c7.1-4.3,15.3-6.5,24.7-6.5c4,0,7.8,0.5,11.3,1.5s6.8,2.5,9.7,4.5s5.3,4.3,7.2,7.1h0.6V0
			h30v89.7c0,11-2.2,20.5-6.6,28.5c-4.4,8.1-10.5,14.3-18.5,18.7C251,141.2,241.6,143.4,230.8,143.4z M230.8,117.7
			c4.6,0,8.6-1.2,12-3.5c3.3-2.3,6-5.4,7.8-9.4c1.9-3.9,2.8-8.3,2.8-13.2c0-4.9-0.9-9.2-2.7-13s-4.4-6.9-7.8-9.2
			c-3.4-2.3-7.4-3.5-12.1-3.5c-4.5,0-8.5,1.2-12,3.5s-6.1,5.4-7.9,9.2c-1.8,3.8-2.7,8.2-2.7,13c0,4.9,0.9,9.3,2.7,13.2
			c1.8,3.9,4.4,7.1,7.9,9.4S226.3,117.7,230.8,117.7z"/>
		<path class="st0" d="M345.8,141.1c-11.2,0-21.1-2.1-29.6-6.3s-15.1-10-19.9-17.5s-7.2-16-7.2-25.7c0-10.8,2.3-20.1,6.9-27.9
			s10.6-13.8,18.2-17.9c7.5-4.1,15.9-6.2,25.2-6.2c10.4,0,19.1,2.2,26.1,6.6s12.2,10.4,15.8,18c3.6,7.6,5.4,16.2,5.4,25.7
			c0,1.8-0.1,3.8-0.3,6c-0.2,2.2-0.5,3.9-0.9,5.2h-64.9c1,3.5,2.6,6.3,4.6,8.6c2.1,2.3,4.8,3.9,8.2,5c3.4,1.1,7.2,1.6,11.5,1.6h30
			V141h-29.1V141.1z M320.1,82.3h37.7c-0.3-2.1-0.7-4.1-1.3-6c-0.6-1.9-1.4-3.6-2.3-5.1c-1-1.5-2.2-2.8-3.7-4s-3.2-2-5.1-2.6
			s-4-0.9-6.2-0.9c-3,0-5.6,0.5-7.9,1.6s-4.3,2.5-5.8,4.2s-2.7,3.6-3.6,5.9C321.1,77.7,320.4,80,320.1,82.3z"/>
	</g>
	<g>
		<path class="st0" d="M445.9,143.4c-7.5,0-14.3-1.2-20.5-3.6c-6.2-2.4-11.5-5.9-16-10.5c-4.5-4.6-8-10.2-10.5-16.7
			s-3.8-13.8-3.8-21.9c0-10.3,2.1-19.2,6.3-26.8c4.2-7.5,9.9-13.4,17.2-17.5c7.3-4.1,15.4-6.2,24.5-6.2c5,0,9.8,0.8,14.4,2.5
			s8.7,4,12.3,7c3.6,3,6.4,6.4,8.5,10.4h0.4V0h17.8v91.2c0,11-2.2,20.3-6.7,28.1c-4.4,7.8-10.4,13.8-18,17.9
			C464.2,141.3,455.6,143.4,445.9,143.4z M445.9,128.1c6.1,0,11.5-1.5,16.4-4.4c4.9-3,8.8-7.2,11.7-12.6c2.9-5.4,4.3-11.8,4.3-19.1
			c0-7.5-1.4-13.9-4.3-19.4s-6.8-9.7-11.7-12.7c-4.9-3-10.4-4.4-16.6-4.4c-6.1,0-11.6,1.5-16.5,4.6c-5,3.1-8.9,7.3-11.8,12.8
			S413,84.6,413,91.8c0,7.5,1.5,13.9,4.4,19.3c3,5.4,6.9,9.6,11.9,12.6C434.3,126.7,439.8,128.1,445.9,128.1z"/>
		<path class="st0" d="M562.4,141.1c-10.8,0-20.4-2-28.8-6.1c-8.4-4.1-14.9-9.8-19.6-17.2c-4.7-7.4-7.1-16.1-7.1-26
			c0-9.8,2-18.6,6-26.4c4-7.8,9.5-13.9,16.6-18.5c7.1-4.5,15.3-6.8,24.7-6.8c10.2,0,18.7,2.2,25.4,6.6c6.8,4.4,11.8,10.3,15.2,17.7
			c3.3,7.4,5,15.7,5,24.8c0,1.4,0,2.9-0.1,4.4s-0.2,2.9-0.5,4.1h-73.4c0.6,6.1,2.6,11.2,6,15.4c3.3,4.2,7.6,7.3,12.9,9.5
			c5.2,2.1,11,3.2,17.3,3.2h25.7v15.3L562.4,141.1L562.4,141.1z M525.7,85.2H582c0-2.4-0.3-5.1-0.8-7.8c-0.5-2.8-1.4-5.5-2.7-8.1
			s-3-5-5.1-7.2c-2.1-2.1-4.8-3.8-7.9-5.1c-3.2-1.3-6.9-1.9-11.1-1.9c-4.5,0-8.5,0.9-11.9,2.6c-3.4,1.7-6.3,4.1-8.8,7
			c-2.4,2.9-4.3,6.2-5.6,9.8C526.7,78,526,81.6,525.7,85.2z"/>
	</g>
	<g>
		<path class="st0" d="M610.1,141.1v-70c0-9,2.6-16.1,7.7-21.3c5.2-5.2,12.3-7.7,21.5-7.7h29v24.4h-21.5c-1.8,0-3.4,0.6-4.6,1.8
			c-1.3,1.2-1.9,2.8-1.9,4.7v68h-30.2V141.1z"/>
		<path class="st0" d="M721.8,141.1c-11.2,0-21.1-2.1-29.6-6.3s-15.1-10-19.9-17.5c-4.8-7.5-7.2-16-7.2-25.7
			c0-10.8,2.3-20.1,6.9-27.9c4.6-7.8,10.6-13.8,18.2-17.9c7.5-4.1,15.9-6.2,25.2-6.2c10.4,0,19.1,2.2,26.1,6.6s12.2,10.4,15.8,18
			s5.4,16.2,5.4,25.7c0,1.8-0.1,3.8-0.3,6s-0.5,3.9-0.9,5.2h-64.9c1,3.5,2.6,6.3,4.6,8.6c2.1,2.3,4.8,3.9,8.2,5s7.2,1.6,11.5,1.6h30
			V141h-29.1V141.1z M696.1,82.3h37.7c-0.3-2.1-0.7-4.1-1.3-6s-1.4-3.6-2.3-5.1c-1-1.5-2.2-2.8-3.7-4s-3.2-2-5.1-2.6
			c-1.9-0.6-4-0.9-6.2-0.9c-3,0-5.6,0.5-7.9,1.6c-2.3,1.1-4.3,2.5-5.8,4.2s-2.7,3.6-3.6,5.9C697.1,77.7,696.5,80,696.1,82.3z"/>
		<path class="st0" d="M817.1,143.4c-8.2,0-15.7-1.3-22.3-3.9c-6.6-2.6-12.2-6.3-16.7-11.1s-8-10.5-10.4-17S764,97.6,764,89.7
			c0-9.9,2-18.6,6.1-26s9.6-13.3,16.7-17.6c7.1-4.3,15.3-6.5,24.7-6.5c4,0,7.8,0.5,11.3,1.5s6.8,2.5,9.7,4.5s5.3,4.3,7.2,7.1h0.6V0
			h30v89.7c0,11-2.2,20.5-6.6,28.5c-4.4,8.1-10.5,14.3-18.5,18.7S827.9,143.4,817.1,143.4z M817.1,117.7c4.6,0,8.6-1.2,12-3.5
			c3.3-2.3,6-5.4,7.8-9.4c1.9-3.9,2.8-8.3,2.8-13.2c0-4.9-0.9-9.2-2.7-13s-4.4-6.9-7.8-9.2c-3.4-2.3-7.4-3.5-12.1-3.5
			c-4.5,0-8.5,1.2-12,3.5s-6.1,5.4-7.9,9.2c-1.8,3.8-2.7,8.2-2.7,13c0,4.9,0.9,9.3,2.7,13.2c1.8,3.9,4.4,7.1,7.9,9.4
			S812.6,117.7,817.1,117.7z"/>
		<path class="st0" d="M929.8,143.4c-10.2,0-19-2-26.4-6s-13.1-9.3-17.1-15.9s-6-14.1-6-22.5V42h30v56.2c0,3.5,0.8,6.7,2.5,9.6
			s4,5.2,7,7c3,1.7,6.2,2.6,9.9,2.6c3.6,0,6.9-0.9,9.8-2.6c2.9-1.7,5.2-4.1,6.9-7s2.5-6.1,2.5-9.6V41.9h30.2v57
			c0,8.4-2,15.9-5.9,22.5s-9.6,12-16.9,15.9C948.7,141.4,939.9,143.4,929.8,143.4z"/>
		<path class="st0" d="M1038.2,141.1c-10.3,0-19.5-2.2-27.5-6.5c-8.1-4.3-14.4-10.2-19-17.6s-7-15.9-7-25.4s2.3-18,7-25.4
			c4.6-7.4,11-13.3,19-17.7c8.1-4.4,17.2-6.6,27.5-6.6h14.9v25.3h-13.7c-5,0-9.3,1.1-13,3.2c-3.6,2.1-6.4,5-8.4,8.7s-3,7.8-3,12.5
			s1,8.8,3,12.6c2,3.7,4.8,6.6,8.4,8.7c3.6,2.1,7.9,3.1,13,3.1h13.7v25.1L1038.2,141.1L1038.2,141.1z"/>
	</g>
</g>
</svg>
