<svg width="24" height="24" viewBox="0 0 24 24" fill="none" xmlns="http://www.w3.org/2000/svg">
<g clip-path="url(#clip0_88_443)">
<path d="M22.5 8.06245C22.95 8.06245 23.3625 7.68745 23.3625 7.19995V1.87495C23.3625 1.19995 22.8375 0.674951 22.1625 0.674951H16.7625C16.3125 0.674951 15.9 1.04995 15.9 1.53745C15.9 2.02495 16.275 2.39995 16.7625 2.39995H20.4375L12 10.8L3.52501 2.36245H7.20001C7.65001 2.36245 8.06251 1.98745 8.06251 1.49995C8.06251 1.01245 7.68751 0.637451 7.20001 0.637451H1.87501C1.20001 0.674951 0.675012 1.19995 0.675012 1.87495V7.23745C0.675012 7.68745 1.05001 8.09995 1.53751 8.09995C2.02501 8.09995 2.40001 7.72495 2.40001 7.23745V3.52495L10.8 12L2.36251 20.475V16.7999C2.36251 16.35 1.98751 15.9375 1.50001 15.9375C1.01251 15.9375 0.637512 16.3125 0.637512 16.7999V22.125C0.637512 22.8 1.16251 23.325 1.83751 23.325H7.20001C7.65001 23.325 8.06251 22.95 8.06251 22.4625C8.06251 21.975 7.68751 21.6 7.20001 21.6H3.52501L12 13.2L20.475 21.6749H16.8C16.35 21.6749 15.9375 22.0499 15.9375 22.5375C15.9375 23.025 16.3125 23.4 16.8 23.4H22.125C22.8 23.4 23.325 22.875 23.325 22.2V16.7625C23.325 16.3125 22.95 15.9 22.4625 15.9C21.975 15.9 21.6 16.275 21.6 16.7625V20.4375L13.2 12L21.675 3.52495V7.19995C21.675 7.68745 22.05 8.06245 22.5 8.06245Z" fill="white"/>
</g>
<defs>
<clipPath id="clip0_88_443">
<rect width="24" height="24" fill="white"/>
</clipPath>
</defs>
</svg>
