<svg width="20" height="20" viewBox="0 0 20 20" fill="none" xmlns="http://www.w3.org/2000/svg">
<g clip-path="url(#clip0_76_155)">
<path d="M15.1875 19.4688C14.3438 19.4688 13.375 19.25 12.3125 18.8438C10.1875 18 7.84375 16.375 5.75 14.2813C3.65625 12.1875 2.03125 9.84377 1.1875 7.68752C0.250004 5.37502 0.343754 3.46877 1.4375 2.40627C1.46875 2.37502 1.53125 2.34377 1.5625 2.31252L4.1875 0.750025C4.84375 0.375025 5.6875 0.562525 6.125 1.18752L7.96875 3.93753C8.40625 4.59378 8.21875 5.46877 7.59375 5.90627L6.46875 6.68752C7.28125 8.00002 9.59375 11.2188 13.2813 13.5313L13.9688 12.5313C14.5 11.7813 15.3438 11.5625 16.0313 12.0313L18.7813 13.875C19.4063 14.3125 19.5938 15.1563 19.2188 15.8125L17.6563 18.4375C17.625 18.5 17.5938 18.5313 17.5625 18.5625C17 19.1563 16.1875 19.4688 15.1875 19.4688ZM2.375 3.46878C1.78125 4.12503 1.8125 5.46877 2.5 7.18752C3.28125 9.15627 4.78125 11.3125 6.75 13.2813C8.6875 15.2188 10.875 16.7188 12.8125 17.5C14.5 18.1875 15.8438 18.2188 16.5313 17.625L18.0313 15.0625C18.0313 15.0313 18.0313 15.0313 18.0313 15L15.2813 13.1563C15.2813 13.1563 15.2188 13.1875 15.1563 13.2813L14.4688 14.2813C14.0313 14.9063 13.1875 15.0938 12.5625 14.6875C8.625 12.25 6.1875 8.84377 5.3125 7.46877C4.90625 6.81252 5.0625 5.96878 5.6875 5.53128L6.8125 4.75002V4.71878L4.96875 1.96877C4.96875 1.93752 4.9375 1.93752 4.90625 1.96877L2.375 3.46878Z" fill="white"/>
<path d="M18.3125 8.90645C17.9375 8.90645 17.6563 8.6252 17.625 8.2502C17.375 5.09395 14.7813 2.5627 11.5938 2.34395C11.2188 2.3127 10.9063 2.0002 10.9375 1.59395C10.9688 1.21895 11.2813 0.906455 11.6875 0.937705C15.5625 1.1877 18.7188 4.2502 19.0313 8.1252C19.0625 8.5002 18.7813 8.84395 18.375 8.8752C18.375 8.90645 18.3438 8.90645 18.3125 8.90645Z" fill="white"/>
<path d="M15.2188 9.18792C14.875 9.18792 14.5625 8.93792 14.5313 8.56292C14.3438 6.87542 13.0313 5.56292 11.3438 5.34417C10.9688 5.31292 10.6875 4.93792 10.7188 4.56292C10.75 4.18792 11.125 3.90667 11.5 3.93792C13.8438 4.21917 15.6563 6.03167 15.9375 8.37542C15.9688 8.75042 15.7188 9.09417 15.3125 9.15667C15.25 9.18792 15.2188 9.18792 15.2188 9.18792Z" fill="white"/>
</g>
<defs>
<clipPath id="clip0_76_155">
<rect width="20" height="20" fill="white"/>
</clipPath>
</defs>
</svg>
