<svg width="23" height="22" viewBox="0 0 23 22" fill="none" xmlns="http://www.w3.org/2000/svg">
<g clip-path="url(#clip0_66_589)">
<path d="M21.8335 19.1469L16.1617 14.5406C18.4992 11.3438 18.2585 6.77188 15.3367 3.88438C13.7898 2.3375 11.7273 1.47813 9.52728 1.47813C7.32728 1.47813 5.26478 2.3375 3.71791 3.88438C0.521033 7.08125 0.521033 12.3063 3.71791 15.5031C5.26478 17.05 7.32728 17.9094 9.52728 17.9094C11.6242 17.9094 13.5835 17.1188 15.1304 15.7094L20.871 20.35C21.0085 20.4531 21.1804 20.5219 21.3523 20.5219C21.5929 20.5219 21.7992 20.4188 21.9367 20.2469C22.2117 19.9031 22.1773 19.4219 21.8335 19.1469ZM9.52728 16.3625C7.73978 16.3625 6.08978 15.675 4.81791 14.4031C2.20541 11.7906 2.20541 7.5625 4.81791 4.98438C6.08978 3.7125 7.73978 3.025 9.52728 3.025C11.3148 3.025 12.9648 3.7125 14.2367 4.98438C16.8492 7.59688 16.8492 11.825 14.2367 14.4031C12.9992 15.675 11.3148 16.3625 9.52728 16.3625Z" fill="white"/>
</g>
<defs>
<clipPath id="clip0_66_589">
<rect width="22" height="22" fill="white" transform="translate(0.727295)"/>
</clipPath>
</defs>
</svg>
