<svg width="82" height="75" viewBox="0 0 82 75" fill="none" xmlns="http://www.w3.org/2000/svg">
<circle cx="57.4163" cy="24.471" r="24.471" fill="#9747FF" fill-opacity="0.14"/>
<g clip-path="url(#clip0_25_23677)">
<path d="M60.6459 63.5838C56.4001 66.341 51.0037 68.7724 46.193 69.2137C40.3823 69.7678 33.7529 65.7562 30.4995 63.8448C30.0657 63.5899 29.5707 63.2407 29.3538 63.1133C23.6766 60.3613 18.8951 58.3691 14.5757 56.8817C12.3075 56.0743 9.51116 55.0732 7.76247 52.5871C5.92432 49.7565 6.12879 45.7337 8.34658 42.952C10.1208 40.7267 12.8521 39.3554 16.163 39.0832C16.8186 39.0599 17.5685 38.9753 18.2241 38.952C15.957 35.4611 13.6287 31.8757 11.456 28.3235C10.3249 26.3752 9.19379 24.4269 8.8457 22.2385C8.44122 19.55 9.25353 16.8763 10.9947 14.8066C12.7028 12.8925 15.0566 11.7663 17.5846 11.7343C18.3958 11.7441 19.1126 11.8151 19.7964 12.0418C22.3476 12.6654 24.7285 14.4727 26.7272 16.9307C27.9575 18.4121 28.8435 19.983 29.7295 21.5539C31.6827 20.0172 34.3429 19.3627 36.866 19.7364C39.0789 17.3603 42.6495 16.2488 45.8845 17.099C47.0216 15.9582 48.4981 15.1335 50.2198 14.6861C52.7856 14.093 55.5256 14.594 57.5671 16.0852C59.2692 17.2603 60.3721 18.9586 61.3524 20.4682C63.3744 23.5817 65.552 26.7284 67.5078 30.1532C70.1989 34.7102 73.276 40.8945 72.5141 47.1573C71.9224 52.2365 68.9634 56.9751 63.9199 61.1893C62.9103 62.1133 61.7781 62.8485 60.6459 63.5838ZM13.4344 45.416C13.057 45.6611 12.7409 46.0005 12.4247 46.34C11.665 47.2357 11.3955 48.8863 12.0695 49.9242C12.8048 51.0564 14.5448 51.6702 16.2849 52.284C20.9156 53.8376 25.7583 55.9242 31.5911 58.7092C31.9636 58.8697 32.4587 59.219 33.1094 59.6012C35.5565 61.0973 41.4739 64.6322 45.6291 64.2142C50.6898 63.7447 56.9402 60.3563 60.5966 57.3112C63.3707 54.9731 66.9094 51.3336 67.3406 46.627C67.8661 41.8591 65.3073 36.6796 62.9508 32.8443C61.0231 29.6694 58.9399 26.4615 56.9792 23.4423C56.2439 22.3101 55.4474 21.0835 54.4573 20.3851C53.6228 19.7198 52.4391 19.5495 51.3118 19.8792C50.2788 20.1476 49.4296 20.699 49.0143 21.5053C48.7263 22.0947 48.2215 22.5567 47.5329 22.7356C46.8442 22.9146 46.1886 22.9379 45.538 22.5556C43.6472 21.5031 40.9539 22.3132 39.9957 24.1427C39.3586 25.2271 38.0425 25.6793 36.8306 25.2591C34.8737 24.5178 32.3973 25.4553 31.5948 27.3179C31.1794 28.1242 30.3915 28.77 29.486 28.8215C28.5804 28.873 27.6185 28.4246 27.1283 27.6698C26.5156 26.7263 25.9972 25.7215 25.3845 24.778C24.4985 23.2071 23.6738 21.7306 22.6604 20.3766C21.3688 18.8008 19.8223 17.6588 18.3604 17.2668C18.0492 17.2006 17.738 17.1345 17.3324 17.1296C16.3655 17.0867 15.3608 17.6051 14.6954 18.4396C13.8414 19.3967 13.4824 20.7029 13.6565 21.7971C13.8587 23.1414 14.6222 24.5235 15.6025 26.0331C18.6612 31.1563 22.003 36.0956 25.3447 41.0349C25.8962 41.884 25.9146 42.9452 25.4049 43.8128C24.9895 44.6191 23.9847 45.1374 22.9897 44.8446C20.8723 44.4759 18.6605 44.1684 16.6938 44.2383C15.3496 44.4405 14.2835 44.8646 13.4344 45.416Z" fill="#8646F4"/>
</g>
<defs>
<clipPath id="clip0_25_23677">
<rect width="72" height="72" fill="white" transform="translate(0 3)"/>
</clipPath>
</defs>
</svg>
