<svg width="82" height="75" viewBox="0 0 82 75" fill="none" xmlns="http://www.w3.org/2000/svg">
<circle cx="57.4163" cy="24.471" r="24.471" fill="#9747FF" fill-opacity="0.14"/>
<path d="M68.2875 59.925L53.55 45.1875C51.4125 43.05 47.925 42.9375 45.5625 44.8501L39.825 39.1125C46.35 30.7875 45.7875 18.75 38.1375 11.1C29.925 2.88755 16.425 2.88755 8.21251 11.1C6.19888e-06 19.3125 6.19888e-06 32.8125 8.21251 41.0251C12.375 45.1875 17.775 47.2126 23.175 47.2126C27.7875 47.2126 32.4 45.75 36.225 42.7126L41.9625 48.4501C39.9375 50.8126 40.05 54.3 42.3 56.4375L57.0375 71.175C58.1625 72.3 59.7375 72.8625 61.2 72.8625C62.6625 72.8625 64.2375 72.3 65.3625 71.175L68.2875 68.25C70.5375 66 70.5375 62.2875 68.2875 59.925ZM11.7 37.5375C5.40001 31.2375 5.40001 21 11.7 14.7C14.85 11.55 19.0125 9.97505 23.0625 9.97505C27.1125 9.97505 31.275 11.55 34.425 14.7C40.725 21 40.725 31.2375 34.425 37.5375C28.2375 43.8375 18 43.8375 11.7 37.5375ZM64.6875 64.7626L61.7625 67.6875C61.425 68.0251 60.8625 68.0251 60.525 67.6875L45.7875 52.9501C45.45 52.6126 45.45 52.05 45.7875 51.7126L48.7125 48.7876C48.825 48.6751 49.05 48.5625 49.275 48.5625C49.5 48.5625 49.725 48.6751 49.8375 48.7876L64.575 63.5251C65.025 63.8625 65.025 64.4251 64.6875 64.7626Z" fill="#8646F4"/>
<path d="M17.55 24.6H23.0625C24.4125 24.6 25.65 23.475 25.65 22.0125C25.65 20.55 24.525 19.425 23.0625 19.425H17.55C16.2 19.425 14.9625 20.55 14.9625 22.0125C14.9625 23.475 16.0875 24.6 17.55 24.6Z" fill="#8646F4"/>
<path d="M29.025 27.8625H17.55C16.2 27.8625 14.9625 28.9875 14.9625 30.45C14.9625 31.9125 16.0875 33.0375 17.55 33.0375H29.025C30.375 33.0375 31.6125 31.9125 31.6125 30.45C31.6125 28.9875 30.375 27.8625 29.025 27.8625Z" fill="#8646F4"/>
</svg>
