<svg width="82" height="75" viewBox="0 0 82 75" fill="none" xmlns="http://www.w3.org/2000/svg">
<circle cx="57.4163" cy="24.471" r="24.471" fill="#9747FF" fill-opacity="0.14"/>
<path d="M68.5997 42.8241H65.9682C65.0797 42.8241 64.3263 41.7894 64.3263 40.5749V23.5712C64.3263 22.3229 65.136 21.232 66.0581 21.232H68.5997C69.1962 21.232 69.7683 20.9951 70.1901 20.5733C70.6119 20.1515 70.8489 19.5794 70.8489 18.9828C70.8489 18.3863 70.6119 17.8142 70.1901 17.3924C69.7683 16.9706 69.1962 16.7337 68.5997 16.7337H66.0581C64.9585 16.748 63.8831 17.0585 62.945 17.6324C62.007 18.2063 61.241 19.0225 60.7276 19.995H46.0068L43.8588 18.1169C41.9479 16.4042 39.6505 15.1802 37.1631 14.5495C34.6758 13.9189 32.0726 13.9004 29.5766 14.4958C23.2789 16.0927 19.1179 21.1645 17.6672 23.2563H15.4181C15.4433 21.5861 14.8178 19.9716 13.674 18.7543C12.5301 17.537 10.9576 16.8123 9.28906 16.7337H3.37374C2.77723 16.7337 2.20514 16.9706 1.78334 17.3924C1.36154 17.8142 1.12457 18.3863 1.12457 18.9828C1.12457 19.5794 1.36154 20.1515 1.78334 20.5733C2.20514 20.9951 2.77723 21.232 3.37374 21.232H9.26657C10.155 21.232 10.9085 22.2554 10.9085 23.4812V40.4737C10.9085 41.722 10.0988 42.8241 9.1766 42.8241H3.37374C2.77723 42.8241 2.20514 43.061 1.78334 43.4828C1.36154 43.9046 1.12457 44.4767 1.12457 45.0732C1.12457 45.6698 1.36154 46.2418 1.78334 46.6636C2.20514 47.0854 2.77723 47.3224 3.37374 47.3224H9.1766C10.2699 47.2997 11.3373 46.9855 12.2685 46.4121C13.1997 45.8388 13.9609 45.0271 14.4734 44.0611H15.2606C16.1155 44.0628 16.9556 44.2835 17.701 44.7021C17.644 45.0067 17.6505 45.3197 17.7202 45.6216C17.7899 45.9235 17.9211 46.2077 18.1058 46.4565L20.7036 49.9314C21.0095 50.3288 21.4355 50.6167 21.9182 50.7524L25.3594 51.6745L26.9001 54.9583C27.038 55.2528 27.238 55.5139 27.4866 55.7235C27.7351 55.9332 28.0261 56.0865 28.3395 56.1729L31.9607 57.1625L34.3111 60.8962C34.6076 61.3675 35.0684 61.7121 35.6044 61.8633L41.8683 63.6064C42.0657 63.664 42.27 63.6943 42.4756 63.6964C42.844 63.6969 43.2069 63.607 43.5324 63.4344C43.8579 63.2618 44.1361 63.012 44.3424 62.7067L56.0943 45.2532C56.1975 45.1005 56.3365 44.9756 56.4993 44.8893C56.662 44.803 56.8435 44.7581 57.0277 44.7584H61.1549C61.696 45.5372 62.4147 46.176 63.2517 46.6219C64.0887 47.0678 65.0199 47.3079 65.9682 47.3224H68.5997C69.1962 47.3224 69.7683 47.0854 70.1901 46.6636C70.6119 46.2418 70.8489 45.6698 70.8489 45.0732C70.8489 44.4767 70.6119 43.9046 70.1901 43.4828C69.7683 43.061 69.1962 42.8241 68.5997 42.8241ZM21.2996 25.8653C22.5029 24.1672 25.798 20.0849 30.6787 18.8479C32.4704 18.4342 34.3355 18.4594 36.1153 18.9215C37.8952 19.3836 39.537 20.2688 40.9012 21.5019L45.5007 25.5054C46.0605 25.9335 46.4317 26.5627 46.5353 27.2598C46.544 27.4353 46.5166 27.6107 46.4547 27.7751C46.3928 27.9396 46.2977 28.0895 46.1755 28.2157L44.2637 30.2624C43.7778 30.7882 43.1134 31.1141 42.4002 31.1765C41.687 31.2389 40.9761 31.0333 40.4063 30.5998L39.9565 30.2624C38.5645 29.21 36.8384 28.6974 35.0976 28.8193C33.3568 28.9413 31.7191 29.6897 30.4875 30.9259L20.5574 41.1934C19.0362 40.1594 17.2459 39.5927 15.4068 39.5628V27.7546H17.656C18.3696 27.7513 19.0723 27.5783 19.7058 27.2497C20.3394 26.9212 20.8857 26.4467 21.2996 25.8653ZM52.3719 42.7341L41.5197 58.8382L37.6511 57.7136L35.3007 53.9799C35.0015 53.5064 34.5363 53.1615 33.9962 53.0128L30.5325 52.0682L28.9806 48.7731C28.8427 48.4787 28.6426 48.2176 28.3941 48.0079C28.1456 47.7982 27.8545 47.6449 27.5411 47.5586L23.8412 46.5689L22.8516 45.2532L33.6701 34.0073C34.1389 33.5458 34.7579 33.2681 35.4143 33.2247C36.0707 33.1814 36.7208 33.3753 37.2463 33.7711L37.6961 34.1085C39.1557 35.2104 40.9721 35.7318 42.7939 35.5718C44.6157 35.4119 46.3134 34.5819 47.5587 33.2426L49.4817 31.2858C50.0165 30.7176 50.4306 30.0471 50.6993 29.3146C50.9679 28.5821 51.0855 27.8028 51.0449 27.0236C50.9979 26.1397 50.7601 25.2765 50.3477 24.4933H59.8279V40.2375H57.0277C56.1065 40.2405 55.2002 40.4697 54.3884 40.905C53.5765 41.3403 52.8841 41.9684 52.3719 42.7341Z" fill="#8646F4"/>
</svg>
