<svg width="24" height="22" viewBox="0 0 24 22" fill="none" xmlns="http://www.w3.org/2000/svg">
<path d="M12.0001 10.9625C9.1126 10.9625 6.7876 8.6375 6.7876 5.75C6.7876 2.8625 9.1126 0.537498 12.0001 0.537498C14.8876 0.537498 17.2126 2.8625 17.2126 5.75C17.2126 8.6375 14.8876 10.9625 12.0001 10.9625ZM12.0001 2.225C10.0501 2.225 8.4751 3.8 8.4751 5.75C8.4751 7.7 10.0501 9.275 12.0001 9.275C13.9501 9.275 15.5251 7.7 15.5251 5.75C15.5251 3.8 13.9501 2.225 12.0001 2.225Z" fill="white"/>
<path d="M18.1125 21.4625C15.225 21.4625 12.9 19.1375 12.9 16.25C12.9 13.3625 15.225 11.0375 18.1125 11.0375C21 11.0375 23.3625 13.3625 23.3625 16.25C23.3625 19.1375 21 21.4625 18.1125 21.4625ZM18.1125 12.725C16.1625 12.725 14.5875 14.3 14.5875 16.25C14.5875 18.2 16.1625 19.775 18.1125 19.775C20.0625 19.775 21.6375 18.2 21.6375 16.25C21.6375 14.3 20.0625 12.725 18.1125 12.725Z" fill="white"/>
<path d="M5.88755 21.4625C3.00005 21.4625 0.675049 19.1375 0.675049 16.25C0.675049 13.3625 3.00005 11.0375 5.88755 11.0375C8.77505 11.0375 11.1 13.3625 11.1 16.25C11.1 19.1375 8.77505 21.4625 5.88755 21.4625ZM5.88755 12.725C3.93755 12.725 2.36255 14.3 2.36255 16.25C2.36255 18.2 3.93755 19.775 5.88755 19.775C7.83755 19.775 9.41255 18.2 9.41255 16.25C9.41255 14.3 7.83755 12.725 5.88755 12.725Z" fill="white"/>
</svg>
