<svg width="16" height="16" viewBox="0 0 16 16" fill="none" xmlns="http://www.w3.org/2000/svg">
<path d="M11.7499 6.57498L11.8749 6.29998L11.9999 6.57498C12.0999 6.79998 12.3249 6.92498 12.5749 6.92498C12.8249 6.92498 13.0249 6.79998 13.1499 6.57498L13.7749 5.29998C13.9249 5.02498 13.7999 4.67498 13.5249 4.54998C13.2499 4.42498 12.8999 4.52498 12.7749 4.79998L12.5749 5.17498L12.4499 4.89998C12.3499 4.67498 12.1249 4.54998 11.8749 4.54998C11.6249 4.54998 11.4249 4.67498 11.2999 4.89998L11.1749 5.17498L10.9999 4.77498C10.8499 4.49998 10.5249 4.37498 10.2499 4.52498C10.0999 4.59998 9.99991 4.74998 9.94991 4.89998C9.92491 4.74998 9.79991 4.59998 9.64991 4.52498C9.37491 4.37498 9.02491 4.49998 8.89991 4.77498L8.69991 5.14998L8.57491 4.87498C8.47491 4.64998 8.24991 4.52498 7.99991 4.52498C7.74991 4.52498 7.54991 4.64998 7.42491 4.87498L7.29991 5.14998L7.09991 4.77498C6.94991 4.49998 6.62491 4.37498 6.34991 4.52498C6.19991 4.59998 6.09991 4.74998 6.04991 4.89998C6.02491 4.74998 5.89991 4.59998 5.74991 4.52498C5.47491 4.37498 5.12491 4.49998 4.99991 4.77498L4.79991 5.14998L4.67491 4.87498C4.57491 4.64998 4.34991 4.52498 4.09991 4.52498C3.84991 4.52498 3.64991 4.64998 3.52491 4.87498L3.39991 5.14998L3.19991 4.77498C3.04991 4.49998 2.72491 4.37498 2.44991 4.52498C2.17491 4.67498 2.04991 4.99998 2.19991 5.27498L2.82491 6.54998C2.92491 6.77498 3.14991 6.89998 3.39991 6.89998C3.64991 6.89998 3.84991 6.77498 3.97491 6.54998L4.09991 6.27498L4.22491 6.54998C4.32491 6.77498 4.54991 6.89998 4.79991 6.89998C5.04991 6.89998 5.24991 6.77498 5.37491 6.54998L5.99991 5.27498C6.02491 5.22498 6.02491 5.19998 6.04991 5.14998C6.04991 5.19998 6.07491 5.22498 6.09991 5.27498L6.72491 6.54998C6.82491 6.77498 7.04991 6.89998 7.29991 6.89998C7.54991 6.89998 7.74991 6.77498 7.87491 6.54998L7.99991 6.27498L8.12491 6.54998C8.22491 6.77498 8.44991 6.89998 8.69991 6.89998C8.94991 6.89998 9.14991 6.77498 9.27491 6.54998L9.89991 5.27498C9.92491 5.22498 9.92491 5.19998 9.94991 5.14998C9.94991 5.19998 9.97491 5.22498 9.99991 5.27498L10.6249 6.54998C10.7249 6.77498 10.9499 6.89998 11.1999 6.89998C11.4249 6.92498 11.6499 6.77498 11.7499 6.57498Z" fill="#111928"/>
<path d="M14.6 1.82501H1.39995C0.724951 1.82501 0.199951 2.37501 0.199951 3.05001V8.35001C0.199951 9.02501 0.749951 9.57501 1.39995 9.57501H9.32495C9.62495 9.57501 9.89995 9.32501 9.89995 9.00001C9.89995 8.67501 9.64995 8.42501 9.32495 8.42501H1.39995C1.34995 8.42501 1.32495 8.37501 1.32495 8.32501V3.05001C1.32495 3.00001 1.34995 2.95001 1.39995 2.95001H14.625C14.675 2.95001 14.7 3.00001 14.7 3.05001V8.35001C14.7 8.40001 14.65 8.45001 14.6 8.45001C14.3 8.45001 14.025 8.70001 14.025 9.02501C14.025 9.35001 14.275 9.60001 14.6 9.60001C15.275 9.60001 15.825 9.05001 15.825 8.37501V3.05001C15.825 2.37501 15.275 1.82501 14.6 1.82501Z" fill="#111928"/>
<path d="M15.325 10.975L11.8 9.2C11.5 9.05 11.15 9.1 10.95 9.325C10.725 9.55 10.675 9.9 10.825 10.2L12.6 13.725C12.75 14 13.025 14.2 13.35 14.2H13.375C13.65 14.2 13.9 14.025 14 13.775L14.425 12.8L15.4 12.375C15.65 12.275 15.8 12.025 15.825 11.75C15.8 11.4 15.625 11.1 15.325 10.975ZM13.55 11.925L13.275 12.55L12.35 10.725L14.175 11.65L13.55 11.925Z" fill="#111928"/>
</svg>
